# https://github.com/mikedh/trimesh
v -0.03008583 0.09703038 -0.00443407
v -0.00918724 0.07631022 0.00962059
v -0.01888640 0.07913591 -0.01459618
v -0.03131449 0.08582578 -0.01203450
v -0.00159018 0.05813555 -0.01528239
v -0.03307557 0.08512147 -0.01148392
v -0.03327991 0.09129623 -0.01095749
v -0.02682637 0.09473097 -0.00745306
v -0.00917138 0.08034089 0.00541232
v -0.03086378 0.08349995 -0.01226216
v -0.01489758 0.06765961 -0.01644795
v -0.02502120 0.07672398 -0.01409845
v -0.02439177 0.07290471 -0.01438747
v -0.00482648 0.06132074 -0.01603912
v -0.02350814 0.09400888 0.00041506
v -0.03253337 0.09552800 0.00238747
v 0.00330695 0.06760888 0.00013254
v -0.00179271 0.07206497 0.00497694
v -0.00616747 0.07921704 -0.00341886
v -0.01936254 0.06247611 0.01434312
v -0.01906399 0.06486800 0.01433558
v 0.00110253 0.04878254 -0.01704515
v 0.00641610 0.03834274 -0.01677255
v 0.00884672 0.04841493 -0.01110958
v -0.00594437 0.07453985 -0.01065869
v -0.00760782 0.07132737 -0.01275548
v -0.00658521 0.06917435 -0.01328298
v 0.01357027 0.04467839 -0.00688756
v 0.01528010 0.03881483 -0.00789155
v 0.00848469 0.04147901 -0.01505053
v 0.01491197 0.02319900 -0.01496011
v -0.02613934 0.07575483 0.01185099
v -0.03672584 0.08776218 -0.00952011
v -0.03808081 0.08754304 -0.00852621
v -0.03680027 0.09216340 0.00375491
v -0.03863305 0.08939014 -0.00743451
v -0.03945106 0.08690236 -0.00701905
v -0.03831293 0.08362742 0.00296196
v -0.04005430 0.08833841 -0.00441479
v -0.04021303 0.08752060 -0.00392145
v -0.04020750 0.08657145 -0.00276240
v -0.03425401 0.07874396 0.00681016
v -0.02449810 0.07108282 0.01253686
v -0.03959237 0.09078325 -0.00116822
v -0.04009194 0.08738344 -0.00107600
v -0.03986263 0.08647398 -0.00004997
v -0.02386022 0.06985316 0.01278212
v -0.02302729 0.06851142 0.01310285
v -0.03969587 0.08742159 0.00047748
v -0.02041544 0.06418040 0.01399876
v 0.01742929 -0.00379317 -0.01650015
v 0.00742239 0.02910146 -0.01770958
v 0.01726539 -0.03690855 -0.01659223
v -0.04021303 -0.09279209 -0.01034037
v -0.04013337 -0.09291579 -0.00915972
v -0.04018233 -0.09385182 -0.00956579
v -0.03979858 -0.09396530 -0.00686409
v -0.03717342 -0.09476126 -0.01580673
v -0.03751659 -0.09493998 -0.01571144
v -0.03804471 -0.09454350 -0.01549095
v -0.03949647 -0.09419341 -0.01400827
v -0.03888021 -0.09353404 -0.01490262
v -0.03936197 -0.09304423 -0.01442994
v -0.03993546 -0.09258062 -0.01311639
v -0.03792533 -0.09967601 -0.01129574
v -0.00776612 -0.09138385 -0.00505392
v -0.01075741 0.04485178 0.01650094
v -0.02426587 0.08174141 0.01089377
v -0.00065959 0.06546847 0.01144738
v 0.01705128 0.02585755 0.01366659
v 0.02041528 0.01026499 0.01433457
v 0.02237344 0.02361772 0.00556243
v -0.00061156 0.04673697 0.01651970
v 0.02547388 0.01430396 -0.00184340
v -0.00217619 0.02972511 0.01801788
v -0.01048137 0.04917099 0.01642445
v -0.00927075 0.04177572 0.01684510
v 0.00736521 0.03421984 0.01639862
v 0.00999014 0.00514306 0.01855286
v 0.01488646 0.04724759 -0.00062457
v 0.01558283 0.03507586 0.01213251
v 0.01103683 0.04673994 0.01241787
v 0.01721894 0.04009326 0.00334687
v -0.00745901 0.03913375 0.01723085
v -0.00629049 0.03618923 0.01743691
v -0.00316162 0.02602285 0.01793587
v -0.00268741 0.02666819 0.01800174
v -0.00157310 0.02149147 0.01818268
v 0.02270441 0.01561740 0.00915777
v 0.02831442 -0.00232098 0.00076710
v 0.02087983 0.02726476 -0.00399374
v 0.01772074 0.01447429 0.01584306
v 0.01119900 -0.05723985 0.01642437
v 0.01598375 -0.05526280 0.01527314
v 0.02706790 0.00077198 -0.00262704
v -0.03621327 -0.09723904 -0.01623002
v 0.02490224 -0.00163197 -0.00737207
v 0.02786410 -0.00998115 -0.00333512
v 0.01049700 -0.06305317 0.01526875
v 0.00320376 -0.02075246 0.01862131
v 0.02293326 -0.01538142 -0.01128543
v 0.02654843 -0.01315698 0.00906315
v 0.02898378 -0.03061485 -0.00119387
v 0.00554522 -0.06910251 -0.01584966
v 0.00405357 -0.02272060 0.01871918
v 0.00299616 -0.02633403 0.01856440
v 0.02874709 -0.01198179 -0.00032077
v 0.00262235 -0.02967771 0.01846240
v 0.02491585 0.01927779 0.00275333
v 0.00221563 -0.03361860 0.01833795
v 0.00171251 -0.03487853 0.01821428
v 0.02569314 -0.01439996 0.01056326
v 0.02027961 -0.05865068 -0.00567657
v 0.02386726 -0.03953506 -0.00794925
v 0.00135772 -0.07009631 -0.01670660
v 0.00190654 -0.07234145 -0.01599157
v 0.02949016 -0.01760022 0.00107046
v 0.02755348 -0.02058551 0.00688150
v 0.02171380 -0.06096679 -0.00070364
v 0.01225246 -0.04259776 -0.01726190
v 0.00758278 -0.05271736 -0.01738493
v 0.02180005 -0.02546725 0.01592204
v -0.00579786 -0.08099593 -0.01472968
v -0.00074540 -0.08414464 -0.00863636
v 0.01064286 -0.05652862 -0.01675338
v 0.01238101 -0.05828361 -0.01481436
v 0.02240621 -0.00903032 0.01501514
v 0.02201245 -0.04912765 -0.00719189
v 0.02114154 -0.03540808 -0.01292252
v 0.02471741 -0.03470676 0.01274673
v 0.01218673 -0.07494772 -0.00113632
v 0.01992490 -0.04057339 0.01676636
v 0.01101099 -0.07619614 0.00147327
v 0.01122541 -0.07615479 -0.00407855
v 0.01079930 -0.05224378 0.01740094
v 0.00525180 -0.03677381 0.01864198
v 0.00292038 -0.08330372 0.00481747
v 0.01873641 -0.05764772 0.01355002
v 0.01073019 -0.07279602 0.01111399
v -0.00227467 -0.07371243 0.01253359
v -0.00321141 -0.07767634 0.01113087
v 0.00571527 -0.07841134 0.01073345
v -0.00372558 -0.08084647 0.00961124
v 0.00007281 -0.04630454 0.01752908
v -0.00093402 -0.04690408 0.01721938
v -0.00046598 -0.05409448 0.01697157
v -0.00278494 -0.08153369 0.00935353
v -0.00353497 -0.05498901 0.01603159
v -0.00450515 -0.05688936 0.01553833
v -0.00657264 -0.06030331 0.01436716
v -0.00383602 -0.06251891 0.01517503
v -0.00773401 -0.06306151 0.01365928
v -0.00666647 -0.06456510 0.01391868
v -0.00217942 -0.08458452 0.00674274
v -0.00236233 -0.08421816 0.00727629
v -0.00282300 -0.08312353 0.00837954
v -0.03926023 -0.09685493 -0.00564450
v -0.03876873 -0.09533949 -0.00415472
v -0.03800538 -0.09569428 -0.00358285
v -0.03705886 -0.09782061 -0.00396969
v -0.03925029 -0.09523312 -0.00481010
v -0.03541592 -0.10119182 -0.00839002
v -0.03639530 -0.09902500 -0.00449833
v -0.03569433 -0.10001455 -0.00565127
v -0.03579636 -0.09934734 -0.00481105
v -0.03707107 -0.09985531 -0.00533058
v 0.00731993 -0.06745442 0.01507744
v -0.00717096 -0.07319798 0.01183042
v -0.03722831 -0.09498609 -0.00246630
f 166 161 157
f 42 158 159
f 40 39 64
f 56 54 65
f 13 96 58
f 159 158 166
f 166 158 161
f 65 54 40
f 40 64 65
f 61 65 64
f 37 64 39
f 161 158 38
f 158 35 38
f 55 56 57
f 155 164 154
f 154 142 155
f 165 163 166
f 155 142 165
f 165 156 163
f 142 156 165
f 166 164 165
f 165 164 155
f 105 79 75
f 32 43 48
f 85 75 84
f 161 38 49
f 157 57 56
f 46 57 157
f 46 157 161
f 65 162 166
f 164 166 162
f 162 154 164
f 162 137 154
f 65 166 157
f 48 43 47
f 47 149 48
f 43 150 47
f 76 21 67
f 86 85 108
f 152 32 159
f 152 43 32
f 152 150 43
f 157 56 65
f 61 64 37
f 49 46 161
f 49 38 35
f 7 4 6
f 121 125 96
f 158 42 35
f 32 35 42
f 32 42 159
f 50 32 48
f 48 149 148
f 148 50 48
f 86 108 106
f 106 108 136
f 105 100 106
f 44 39 40
f 35 44 49
f 13 58 12
f 163 160 166
f 141 160 143
f 143 160 163
f 137 142 154
f 50 148 20
f 96 52 121
f 11 52 96
f 75 79 73
f 146 148 149
f 105 106 136
f 79 105 136
f 84 76 77
f 84 77 111
f 73 69 68
f 11 96 13
f 37 39 36
f 45 44 56
f 45 56 55
f 55 57 45
f 57 46 45
f 46 49 45
f 45 49 44
f 54 56 41
f 56 44 41
f 40 54 41
f 41 44 40
f 10 12 58
f 162 65 66
f 96 66 65
f 156 142 147
f 163 156 147
f 147 143 163
f 32 21 68
f 21 20 145
f 145 67 21
f 146 20 148
f 146 145 20
f 52 51 53
f 52 31 51
f 109 102 117
f 117 130 103
f 72 82 81
f 73 82 69
f 92 71 70
f 73 78 82
f 92 82 78
f 78 79 92
f 35 32 68
f 110 111 136
f 110 136 108
f 110 108 85
f 110 85 84
f 84 111 110
f 150 152 151
f 146 149 151
f 149 47 151
f 151 47 150
f 117 102 118
f 118 102 130
f 118 130 117
f 71 81 70
f 72 109 80
f 83 80 82
f 28 109 29
f 80 109 28
f 68 69 2
f 12 11 13
f 36 39 44
f 61 96 65
f 59 58 96
f 6 4 59
f 59 10 58
f 4 10 59
f 19 17 25
f 11 12 4
f 7 11 4
f 36 44 1
f 96 115 116
f 66 137 162
f 96 123 124
f 124 66 96
f 142 139 167
f 139 138 167
f 147 142 141
f 147 141 143
f 134 133 137
f 134 137 66
f 21 76 73
f 50 21 32
f 20 21 50
f 21 73 68
f 144 145 146
f 136 111 144
f 144 77 76
f 144 111 77
f 76 67 144
f 67 145 144
f 96 116 123
f 31 74 97
f 109 74 91
f 109 117 90
f 117 107 90
f 114 103 119
f 134 113 119
f 88 106 100
f 86 106 88
f 88 87 86
f 88 105 75
f 88 100 105
f 82 80 17
f 136 132 79
f 71 127 109
f 109 127 102
f 73 79 78
f 16 35 68
f 135 136 146
f 140 142 167
f 168 153 169
f 167 151 168
f 168 140 167
f 142 119 139
f 130 102 112
f 102 127 112
f 112 127 130
f 83 72 80
f 82 72 83
f 28 25 80
f 80 25 17
f 24 25 28
f 30 25 24
f 1 16 15
f 35 16 1
f 35 1 44
f 10 4 12
f 3 7 8
f 7 1 8
f 25 3 8
f 104 116 115
f 99 167 138
f 167 93 135
f 138 135 93
f 138 139 119
f 129 53 51
f 125 121 53
f 128 114 119
f 119 113 128
f 125 126 104
f 53 113 125
f 113 104 126
f 30 29 31
f 28 29 30
f 28 30 24
f 22 23 52
f 109 90 74
f 117 103 98
f 129 103 114
f 119 130 138
f 103 130 119
f 104 113 134
f 19 15 9
f 17 19 9
f 132 130 122
f 127 92 122
f 130 127 122
f 71 92 127
f 146 167 135
f 153 151 152
f 153 152 159
f 159 169 153
f 140 168 142
f 153 168 151
f 142 168 141
f 160 141 169
f 159 166 169
f 166 160 169
f 136 144 146
f 132 138 130
f 25 8 19
f 34 33 62
f 60 59 96
f 60 96 61
f 61 62 60
f 60 62 33
f 60 7 6
f 6 59 60
f 33 7 60
f 1 15 19
f 26 3 25
f 30 22 14
f 3 11 7
f 7 33 34
f 36 7 34
f 96 125 115
f 125 104 115
f 124 134 66
f 99 138 93
f 99 93 167
f 119 142 133
f 68 15 16
f 9 15 68
f 68 2 9
f 101 129 51
f 51 31 97
f 31 29 74
f 120 53 121
f 120 121 52
f 129 113 53
f 128 129 114
f 126 125 113
f 104 124 123
f 23 30 31
f 134 124 104
f 129 128 113
f 133 134 131
f 75 76 84
f 75 73 76
f 87 75 85
f 87 85 86
f 87 88 75
f 92 81 82
f 92 70 81
f 17 9 18
f 82 17 69
f 132 122 92
f 132 92 79
f 136 135 132
f 151 167 146
f 168 169 141
f 94 132 135
f 138 132 94
f 94 135 138
f 89 109 72
f 71 109 89
f 72 81 71
f 71 89 72
f 63 62 61
f 63 61 37
f 37 36 63
f 63 36 34
f 34 62 63
f 8 1 19
f 25 14 27
f 3 26 27
f 27 26 25
f 3 14 22
f 22 52 11
f 11 3 22
f 3 27 14
f 1 7 36
f 133 142 137
f 103 129 101
f 91 74 29
f 29 109 91
f 52 53 120
f 123 116 104
f 23 22 30
f 52 23 31
f 103 97 98
f 74 90 95
f 95 97 74
f 134 119 131
f 9 69 18
f 14 5 30
f 5 25 30
f 14 25 5
f 101 51 97
f 101 97 103
f 97 95 90
f 90 98 97
f 98 90 107
f 117 98 107
f 18 69 17
f 9 2 69
f 119 133 131

